<svg xmlns="http://www.w3.org/2000/svg" width="100" height="100"><path d="M32.926 24.875c-5.105 0-8.645 2.875-10.79 5.45h-.097c-6.113 0-11.422 3.274-13.855 8.546-.938 2.031-1.029 4.107-1.118 6.113l-.046.961c-.075 1.401-.003 26.97 0 28.059a1 1 0 0 0 1 .996h9.996c.266 0 .52-.105.707-.293.187-.188.293-.443.293-.709-.01-10.772-.022-31.316-.002-31.959.19-4.763 2.094-7.58 4.02-9.682 8.076.188 13.643 5.475 13.9 13.27.065 2.032-.001 28.106-.002 28.37a.998.998 0 0 0 .293.708.993.993 0 0 0 .707.295h10.084a1 1 0 0 0 1-1c0-.299 0-29.945-.024-32.932 0-9.08-7.057-16.193-16.066-16.193zm49.056.094a1 1 0 0 0-1 1l.002 1.967c.015 20.029.015 30.42 0 30.882-.156 3.902-1.389 6.946-3.984 9.809-7.281-.193-11.607-5.18-11.89-13.742-.062-1.854-.09-24.2-.096-28.66-.001-1.102-.758-1.192-.996-1.192h-.004l-10.012.002c-.54 0-.983.43-1 .97-.014.436-.016 22.94-.016 32.597 0 7.954 5.673 16.468 14.12 16.468 4.13 0 7.832-1.523 10.734-4.412l.152.002c5.766 0 11.197-3.342 13.838-8.512 1.182-2.314 1.184-4.645 1.184-7.11v-29.07h.002a1 1 0 0 0-1-1H81.982zm-49.056 1.906c7.887 0 14.064 6.234 14.064 14.201.021 2.672.024 26.692.024 31.924h-8.078c.012-4.902.057-25.578-.004-27.44-.276-8.393-5.894-14.246-14.207-15.1 1.885-1.863 4.6-3.585 8.2-3.585zm50.058.094h8.03v28.064h.002c0 2.316 0 4.317-.963 6.203-2.047 4.008-6.017 6.755-10.4 7.315 2.112-2.823 3.181-5.942 3.33-9.655.015-.417.017-10.254.001-30.962v-.965zm-19.968.062c.009 7.063.038 26.153.097 27.918.292 8.863 4.689 14.504 11.905 15.518-2.267 1.709-4.963 2.601-7.91 2.601-7.25 0-12.122-7.481-12.122-14.47 0-13.41.004-27.749.012-31.565l8.018-.002zM32.93 29.375l-.149.002a.5.5 0 0 0 .012 1h.01l.129-.002c1.138 0 2.251.159 3.312.475a.5.5 0 1 0 .285-.959 12.657 12.657 0 0 0-3.6-.516zm55.57.094a.5.5 0 0 0-.5.5v2.861a.5.5 0 0 0 1 0V29.97a.5.5 0 0 0-.5-.5zm-31.117.064a.5.5 0 0 0-.5.5c-.005 6.048-.008 18.02-.008 28.567 0 .842.09 1.706.27 2.57a.5.5 0 0 0 .978-.203 11.714 11.714 0 0 1-.248-2.367c0-10.547.003-22.52.008-28.567a.5.5 0 0 0-.5-.5zm-17.006 2.479a.5.5 0 0 0-.272.884c2.433 2.008 3.829 4.986 3.829 8.176.02 2.482.022 22.77.023 28.928a.5.5 0 0 0 1 0c-.001-6.159-.004-26.45-.023-28.932 0-3.484-1.528-6.744-4.192-8.943a.497.497 0 0 0-.365-.113zm-20.006.402c-1.666 2.174-3.18 5.159-3.355 9.547-.026.64-.007 25.084-.002 31.039H9.016c-.026-9.416-.054-25.907.002-26.945.019-.33.032-.658.046-.983.083-1.897.162-3.686.936-5.361 1.91-4.14 5.717-6.788 10.371-7.297zM88.5 35.457a.5.5 0 0 0-.5.5v19.025c0 2.034 0 3.505-.693 4.627a10.278 10.278 0 0 1-2.051 2.375.501.501 0 0 0 .326.88c.116 0 .232-.04.326-.122a11.274 11.274 0 0 0 2.248-2.607C89 58.77 89 57.099 89 54.982V35.957a.5.5 0 0 0-.5-.5zM11.562 45.701a.5.5 0 0 0-.525.473c-.013.24-.021 1.053-.027 2.283a.5.5 0 0 0 .498.502h.002a.5.5 0 0 0 .5-.498c.006-1.203.013-1.998.025-2.234a.5.5 0 0 0-.473-.526zm-.058 5.217a.5.5 0 0 0-.5.498c-.01 4.777.004 11.731.023 18.586a.5.5 0 1 0 1-.004 4331.85 4331.85 0 0 1-.023-18.58.5.5 0 0 0-.5-.5zm47.418 13.309a.502.502 0 0 0-.39.736c.437.808.95 1.553 1.523 2.219a.497.497 0 0 0 .705.052.5.5 0 0 0 .053-.705 11.78 11.78 0 0 1-1.403-2.045.5.5 0 0 0-.488-.257zm3.293 3.843a.499.499 0 0 0-.201.9c1.326.933 2.77 1.462 4.297 1.575l.037.002a.499.499 0 0 0 .037-.998c-1.343-.1-2.62-.57-3.797-1.397a.497.497 0 0 0-.373-.082z"/></svg>